<?xml version="1.0" encoding="UTF-8"?>
<!DOCTYPE svg PUBLIC "-//W3C//DTD SVG 1.1//EN" "http://www.w3.org/Graphics/SVG/1.1/DTD/svg11.dtd">
<!-- Creator: CorelDRAW 2020 (64-Bit) -->
<svg xmlns="http://www.w3.org/2000/svg" xml:space="preserve" width="32px" height="32px" version="1.1" style="shape-rendering:geometricPrecision; text-rendering:geometricPrecision; image-rendering:optimizeQuality; fill-rule:evenodd; clip-rule:evenodd"
viewBox="0 0 32 32"
 xmlns:xlink="http://www.w3.org/1999/xlink"
 xmlns:xodm="http://www.corel.com/coreldraw/odm/2003">
 <defs>
  <style type="text/css">
   <![CDATA[
    .fil0 {fill:#FEFEFE}
    .fil1 {fill:#E81616;fill-rule:nonzero}
   ]]>
  </style>
 </defs>
 <g id="Layer_x0020_1">
  <metadata id="CorelCorpID_0Corel-Layer"/>
  <g id="_2578999688080">
   <rect class="fil0" x="-0.84" y="0.06" width="32" height="32"/>
   <path class="fil1" d="M15.16 9.31c3.14,0 5.77,2.14 6.54,5.04l-13.08 0c0.76,-2.9 3.4,-5.04 6.54,-5.04zm6.53 8.5c-0.59,2.25 -2.33,4.04 -4.54,4.72l0.03 0.08 1.37 3.41 1.59 1.63c0.93,-0.4 1.8,-0.91 2.61,-1.52l-0.63 -2.19c0.34,-0.29 0.66,-0.61 0.95,-0.95l2.19 0.62c0.6,-0.8 1.1,-1.68 1.5,-2.63l-1.63 -1.57c0.1,-0.32 0.19,-0.64 0.27,-0.96 0.02,-0.12 0.05,-0.23 0.07,-0.34l2.2 -0.56c0.12,-1.02 0.12,-2.04 0,-3.03l-2.21 -0.54c-0.09,-0.45 -0.21,-0.88 -0.35,-1.3l1.62 -1.59c-0.4,-0.93 -0.91,-1.8 -1.52,-2.61l-2.18 0.63c-0.3,-0.34 -0.61,-0.66 -0.95,-0.95l0.61 -2.19c-0.8,-0.6 -1.67,-1.1 -2.62,-1.5l-1.58 1.63c-0.31,-0.1 -0.63,-0.19 -0.96,-0.27 -0.11,-0.03 -0.22,-0.05 -0.34,-0.07l-0.56 -2.2c-1.02,-0.13 -2.03,-0.12 -3.02,0l-0.55 2.21c-0.44,0.09 -0.87,0.21 -1.3,0.35l-1.58 -1.62c-0.93,0.4 -1.81,0.91 -2.62,1.52l0.63 2.18c-0.33,0.3 -0.65,0.61 -0.95,0.95l-2.18 -0.61c-0.6,0.79 -1.11,1.67 -1.51,2.62l1.64 1.57c-0.11,0.32 -0.2,0.64 -0.27,0.97 -0.03,0.11 -0.05,0.22 -0.07,0.34l-2.21 0.55c-0.12,1.03 -0.11,2.04 0.01,3.03l2.21 0.54c0.09,0.45 0.2,0.88 0.35,1.31l-1.63 1.58c0.4,0.93 0.91,1.81 1.52,2.61l2.19 -0.63c0.29,0.34 0.61,0.66 0.95,0.96l-0.62 2.18c0.8,0.6 1.68,1.11 2.63,1.51l1.57 -1.64 1.42 -3.43 0.04 -0.04c-2.27,-0.66 -4.05,-2.47 -4.66,-4.76l13.07 0z"/>
  </g>
 </g>
</svg>
