<?xml version="1.0" encoding="UTF-8"?>
<!DOCTYPE svg PUBLIC "-//W3C//DTD SVG 1.1//EN" "http://www.w3.org/Graphics/SVG/1.1/DTD/svg11.dtd">
<!-- Creator: CorelDRAW 2020 (64-Bit) -->
<svg xmlns="http://www.w3.org/2000/svg" xml:space="preserve" width="32px" height="32px" version="1.1" style="shape-rendering:geometricPrecision; text-rendering:geometricPrecision; image-rendering:optimizeQuality; fill-rule:evenodd; clip-rule:evenodd"
viewBox="0 0 32 32"
 xmlns:xlink="http://www.w3.org/1999/xlink"
 xmlns:xodm="http://www.corel.com/coreldraw/odm/2003">
 <defs>
  <style type="text/css">
   <![CDATA[
    .fil2 {fill:#5A5C5E}
    .fil1 {fill:#E81618}
    .fil3 {fill:#FEFEFE}
    .fil0 {fill:white}
   ]]>
  </style>
 </defs>
 <g id="Layer_x0020_1">
  <metadata id="CorelCorpID_0Corel-Layer"/>
  <circle class="fil0" cx="16" cy="16" r="16"/>
  <path class="fil1" d="M9.4 12.65l0.09 0.02c1.81,-0.23 2.48,-0.7 4.55,-0.13 2.56,0.71 4.51,2.74 5,5.33 0.4,2.12 -0.1,2.74 -0.61,4.38l-0.01 0.09c1.83,0.15 2.04,0.37 4.04,0.04 4.16,-0.69 3.64,-2.51 0.96,-2.85 -1.4,-0.17 -2.89,0.13 -2.94,-0.55 -0.1,-1.6 7.15,-5.21 7.01,-7.07 -0.07,-0.88 -0.97,-0.69 -1.67,-0.48 -2.56,0.76 -3.88,2.14 -5.21,2.14 0,-2.11 4.26,-6.06 3.1,-7.22 -1.04,-0.5 -2.91,1.23 -3.65,2.03 -0.36,0.4 -2.6,3.23 -2.99,2.56 -0.28,-0.48 0.32,-3.24 0.43,-4.22 0.11,-1 0.19,-2.05 -0.97,-2.05 -0.13,0.03 -0.21,0.09 -0.41,0.28 -1.1,1.02 -2.09,4.39 -2.83,5.42 -1.3,1.82 -1.22,-2.1 -1.43,-2.87 -0.63,-2.23 -1.86,0.7 -2.13,1.51 -0.41,1.25 -0.33,2.06 -0.33,3.64z"/>
  <path class="fil2" d="M18.42 22.34l0.01 -0.09c-1.14,-0.06 -2,-0.53 -2.97,-0.87l-0.13 -0.01c-0.48,0.51 -0.55,0.73 -1.42,1.22 -3.21,1.84 -7.93,-0.92 -6.63,-5.07 0.36,-1.13 1.51,-2.42 2.67,-2.66l-0.05 -0.1c-0.23,-0.61 -0.43,-1.37 -0.41,-2.09l-0.09 -0.02c-0.03,0.02 -0.07,0.01 -0.09,0.05l-0.6 0.31c-0.66,0.36 -1.4,0.88 -1.93,1.43 -0.64,0.66 -1.36,1.8 -1.62,2.76 -1.89,7.07 6.9,12.03 12.27,6.46 0.22,-0.23 0.32,-0.38 0.52,-0.64l0.31 -0.46c0.15,-0.21 0.02,-0.06 0.16,-0.22z"/>
  <path class="fil3" d="M9.49 12.67c-0.02,0.72 0.18,1.48 0.41,2.09 2.51,-0.5 3.88,-0.26 5.26,1.3 2.15,2.46 0.42,4.82 0.3,5.32 0.97,0.34 1.83,0.81 2.97,0.87 0.51,-1.64 1.01,-2.26 0.61,-4.38 -0.49,-2.59 -2.44,-4.62 -5,-5.33 -2.07,-0.57 -2.74,-0.1 -4.55,0.13z"/>
  <path class="fil1" d="M9.9 14.76l0.05 0.1c0.13,1.18 1.38,3.02 2.06,3.83 1.62,1.91 2.94,2.34 3.32,2.68l0.13 0.01c0.12,-0.5 1.85,-2.86 -0.3,-5.32 -1.38,-1.56 -2.75,-1.8 -5.26,-1.3z"/>
 </g>
</svg>
